<svg xmlns="http://www.w3.org/2000/svg" height="800" width="1200" viewBox="-16.93323 -5.99045 146.75466 35.9427"><path d="M102.5673 18.706c1.7876 0 3.2368-1.5673 3.2368-3.5s-1.4492-3.4997-3.2368-3.4997c-1.789 0-3.2381 1.567-3.2381 3.4997 0 1.9327 1.4492 3.5 3.2381 3.5zm-8.668-3.3326c0-4.6317 3.8558-8.3863 8.6493-8.3863 4.7936 0 8.6498 3.7546 8.6498 8.3863 0 4.6316-3.8562 8.386-8.6498 8.386-4.7935 0-8.6494-3.7544-8.6494-8.386M6.7977 7.6423H0v4.542h1.4716v6.4289H0v4.6382l6.9317-.0007V13.49c-.007-.8641.2742-1.7342 1.5507-1.7342 1.2937 0 1.573.87 1.5683 1.7447v9.7509l5.337-.0007-.0004-9.7502c.002-.8746.2815-1.7447 1.5405-1.7447 1.2762 0 1.5557.87 1.5622 1.7447l-.0006 9.7502 6.9489.0007v-4.6382h-1.4716v-6.4289c0-3.5185-1.8381-5.198-4.4206-5.198-1.805 0-3.3252.6989-4.517 2.0307-.7326-1.2122-1.5771-2.0305-3.9178-2.0306-1.9301.0207-3.2066.6843-4.3136 1.9739v-1.318m44.8677-5.0116h-5.291v5.0236h-1.4541v4.5295h1.4541v6.4294h-1.4937v4.6382h8.3066v-4.6382h-1.476v-6.4294h1.398V7.6543h-1.444V2.6307m11.114 16.0339c1.7776 0 3.2184-1.558 3.2184-3.4793 0-1.9213-1.4408-3.479-3.2184-3.479-1.778 0-3.2188 1.5577-3.2188 3.479 0 1.9214 1.4408 3.4793 3.2188 3.4793zm3.0815-9.9357V7.6382h6.7733v4.5456h-1.2876v6.4294h1.2682v4.6375l-6.8805.003.005-1.0914c-1.2055 1.0328-2.6699 1.5974-4.2909 1.5974-3.9906 0-7.2252-3.7052-7.2252-8.2758 0-4.5703 3.2346-8.2753 7.2252-8.2753 1.6549 0 3.1944.4483 4.4126 1.5205m18.5141 9.9251c1.7751 0 3.214-1.555 3.214-3.474 0-1.9184-1.4389-3.4739-3.214-3.4739-1.7749 0-3.2135 1.5555-3.2135 3.4739 0 1.919 1.4386 3.474 3.2134 3.474zM85.6946 7.232c3.9846 0 7.2157 3.6997 7.2157 8.2638 0 4.5636-3.2311 8.2636-7.2157 8.2636-1.6186 0-3.0953-.5629-4.299-1.5937v1.085h-6.8714v-4.6375h1.2862V6.1375h-1.2862v-4.498h6.7638v7.1108c1.2168-1.071 2.7538-1.5183 4.4066-1.5183m-47.9343 6.4267c0-1.4686-1.2467-2.6806-2.763-2.6806-1.3242 0-2.7104 1.2192-2.7104 2.6806zm-.0864 5.0968h5.5883c-.6128 2.4364-3.773 5.1886-8.2178 5.2062-4.4731.018-8.594-3.0875-8.5938-8.4398.0002-4.4856 3.159-8.3662 8.5938-8.4403 5.2478-.0713 8.5738 3.9805 8.5942 8.4403.002.4679-.0455.8393-.123 1.2865h-11.212c.0396 1.9839 1.1082 2.7687 2.6712 2.8773.788.0547 2.0126-.1495 2.699-.9302m73.1147-16.9362c.3573-.011.4395-.1595.4395-.3463 0-.1814-.0822-.2748-.3842-.2748h-.4564v.621zm-.4011.3792v1.0498h-.3793V.819h.7864c.4452 0 .9066.1209.9066.6706 0 .2803-.17.5001-.495.5661v.011c.3355.0659.3743.2143.4128.4782.0328.2308.0603.4837.1429.7035h-.4837c-.0279-.1376-.066-.2914-.0822-.4344-.0279-.2088-.0279-.4012-.138-.5165-.0937-.099-.2194-.088-.3516-.099zm2.1381-.1374c0-.9343-.758-1.6983-1.6982-1.6983-.9455 0-1.7096.764-1.7096 1.6983 0 .9454.7641 1.7092 1.7096 1.7092.9401 0 1.6982-.7638 1.6982-1.7092zm-3.7701 0c0-1.1378.9232-2.0611 2.0719-2.0611 1.143 0 2.0609.9233 2.0609 2.0611 0 1.1486-.918 2.072-2.061 2.072a2.0664 2.0664 0 01-2.0718-2.072" fill="#284643"/></svg>