<svg width="54" height="54" viewBox="0 0 54 54" fill="none" xmlns="http://www.w3.org/2000/svg">
<rect x="0.5" y="0.5" width="53" height="53" rx="5.5" fill="#FCFCFD"/>
<rect x="0.5" y="0.5" width="53" height="53" rx="5.5" stroke="#F1F1F3"/>
<path fill-rule="evenodd" clip-rule="evenodd" d="M20.7856 33.2144C21.1663 33.5952 21.7837 33.5952 22.1644 33.2144L31.55 23.8289V31.225C31.55 31.7635 31.9865 32.2 32.525 32.2C33.0635 32.2 33.5 31.7635 33.5 31.225V21.475C33.5 20.9365 33.0635 20.5 32.525 20.5H22.775C22.2365 20.5 21.8 20.9365 21.8 21.475C21.8 22.0135 22.2365 22.45 22.775 22.45H30.1711L20.7856 31.8356C20.4048 32.2163 20.4048 32.8337 20.7856 33.2144Z" fill="#FF9500"/>
</svg>
