<svg xmlns="http://www.w3.org/2000/svg" height="800" width="1200" viewBox="-5.675358 -1.318155 49.186436 7.90893"><path d="M17.65171 3.5187l-1.39964 1.75365h-5.68616c-.3593 0-.7157-.14658-.9689-.40084-.254-.2532-.40059-.61013-.40059-.9689V1.37053c0-.35877.14685-.7157.40085-.96837.254-.254.60986-.40164.96917-.40164h5.68695l1.39965 1.7534 1.39964-1.7534h5.68748c.35984 0 .71544.14817.96838.40217.254.25214.40217.60907.40217.96837V3.9026c0 .35878-.14817.7157-.40217.96891-.25294.254-.60854.40084-.96838.40084h-5.68854L17.65198 3.5187zm-16.05676.65034c-.08784 0-.1778-.0344-.2429-.0971-.06402-.0616-.1045-.14817-.10794-.23733-.0053-.09.02699-.1807.08414-.24765.0582-.0683.1434-.11166.23283-.12039l5.9362-.58208c.3347-.0325.65536-.19368.88052-.44397.22622-.24924.35534-.5842.35534-.92075v-.14923c0-.35904-.14764-.71596-.4011-.96837C8.07881.14817 7.72348 0 7.36364 0H.23446v1.1049h6.90298c.0894 0 .17938.0344.24288.0963.0651.0616.10504.1487.10848.23707.006.09-.0265.18044-.0847.24791-.0582.0672-.14367.11112-.23284.11906l-5.93566.5842c-.3347.0331-.65457.195-.88106.44291C.1286 3.08106 0 3.41708 0 3.7531v.1495c0 .35877.14764.7157.40005.9689.254.254.6104.40084.96943.40084h7.12893v-1.1033zm17.12727-1.0779l.8591 1.07578h5.15038c.073 0 .14287-.0299.19447-.0804.0508-.0516.0788-.12224.0788-.19447V1.3793c0-.072-.0278-.14393-.0788-.1942-.0513-.0511-.1217-.0794-.19447-.0794h-5.14774l-.86148 1.07686h-2.14154l-.85989-1.07686h-5.14879c-.0714 0-.14288.0281-.19368.0794-.0503.0503-.0799.12224-.0799.1942v2.5162c0 .0714.0291.14287.0799.19314.0508.0511.12171.0807.19368.0807h5.14826l.8599-1.0779h2.1418zm11.41544-.63237c0 .35798.14817.71623.40138.96838.25453.25347.61171.40216.9689.40216h.34343c.35931 0 .7157-.14816.97023-.40216.25215-.25215.39952-.6104.39952-.96838v-1.0795c0-.072.028-.14393.0794-.1942.0503-.0511.12277-.0794.19447-.0794h1.74572c.0714 0 .14208.0281.19394.0794.0495.0503.0799.12224.0799.1942v3.89335h1.10066l.002-3.90155c0-.35904-.14658-.71596-.39952-.96837-.2548-.254-.61119-.40217-.96838-.40217h-1.7616c-.35904 0-.71543.14817-.96837.40217-.254.25241-.40217.60933-.40217.96837v.9189c0 .11456-.0471.2286-.12779.30956-.0807.082-.1942.12832-.3085.12832-.11589 0-.23019-.0468-.30957-.12805-.0815-.081-.12885-.195-.12885-.30957v-.91942c0-.35904-.14684-.71597-.40058-.96838-.254-.254-.61119-.40217-.96996-.40217h-1.75948c-.3585 0-.71438.14817-.96996.40217-.25294.25241-.40005.60934-.40005.96838v3.90154h1.10331V1.37927c0-.072.0302-.14393.0807-.1942.0503-.0511.12171-.0794.19314-.0794h1.74361c.0733 0 .14472.0281.19526.0794.0513.0503.0799.12224.0799.1942v1.0795zm7.13582 2.30083h.12567c.0363 0 .0635-.007.0812-.0228.0169-.0159.0273-.0365.0273-.063 0-.0249-.008-.045-.0265-.0595-.0185-.0159-.0423-.0238-.0741-.0238h-.13304v.16932zm.33522.31061h-.10662l-.0868-.22966h-.14155v.22966h-.10054v-.55906h.2421c.068 0 .11747.0153.14895.0455.031.0307.0476.0698.0476.11854 0 .0714-.0333.12091-.1016.14816l.0987.24686zm.17648-.27993c0-.22939-.18679-.41619-.41672-.41619-.22966 0-.41619.1868-.41619.4162 0 .23018.18653.41618.4162.41618.23203 0 .41698-.18838.41698-.41619m-.41699-.46619c.25824 0 .46726.20902.46726.4662 0 .2585-.20902.46645-.46726.46645-.2577 0-.46619-.20796-.46619-.46646 0-.25929.21113-.46619.4662-.46619" fill="#c6c7c0"/></svg>